<svg width="20" height="20" viewBox="0 0 20 20" fill="none" xmlns="http://www.w3.org/2000/svg">
<path d="M20 10C20 15.5228 15.5228 20 10 20C4.47715 20 0 15.5228 0 10C0 4.47715 4.47715 0 10 0C15.5228 0 20 4.47715 20 10ZM2 10C2 14.4183 5.58172 18 10 18C14.4183 18 18 14.4183 18 10C18 5.58172 14.4183 2 10 2C5.58172 2 2 5.58172 2 10Z" fill="#B9B9B9"/>
<path d="M19 10C19.5523 10 20.0052 10.4488 19.95 10.9984C19.7735 12.7577 19.1328 14.4454 18.0852 15.8846C16.8408 17.5944 15.0865 18.8656 13.0742 19.5157C11.062 20.1658 8.89543 20.1613 6.88592 19.5028C5.19431 18.9484 3.68729 17.9547 2.51478 16.6311C2.14856 16.2177 2.25325 15.5887 2.70115 15.2656V15.2656C3.14904 14.9425 3.76987 15.0488 4.14631 15.4529C5.06388 16.4379 6.21927 17.1796 7.50873 17.6022C9.11634 18.129 10.8496 18.1327 12.4594 17.6126C14.0692 17.0925 15.4727 16.0755 16.4682 14.7077C17.2667 13.6106 17.7697 12.3331 17.9376 10.9974C18.0064 10.4495 18.4477 10 19 10V10Z" fill="#F9F9F9"/>
</svg>
